<svg id="visual" viewBox="0 0 900 600" width="900" height="600" xmlns="http://www.w3.org/2000/svg" xmlns:xlink="http://www.w3.org/1999/xlink" version="1.1"><rect x="0" y="0" width="900" height="600" fill="#141414"></rect><path d="M0 476L21.5 464.3C43 452.7 86 429.3 128.8 413.5C171.7 397.7 214.3 389.3 257.2 397.3C300 405.3 343 429.7 385.8 436.8C428.7 444 471.3 434 514.2 428.3C557 422.7 600 421.3 642.8 424.7C685.7 428 728.3 436 771.2 429.3C814 422.7 857 401.3 878.5 390.7L900 380L900 601L878.5 601C857 601 814 601 771.2 601C728.3 601 685.7 601 642.8 601C600 601 557 601 514.2 601C471.3 601 428.7 601 385.8 601C343 601 300 601 257.2 601C214.3 601 171.7 601 128.8 601C86 601 43 601 21.5 601L0 601Z" fill="#242424" stroke-linecap="round" stroke-linejoin="miter"></path></svg>